PathFileType	4	(X/Y/Z)	Patient4_TMGait_0pt2_02_right_13.trc.trc
DataRate	CameraRate	NumFrames	NumMarkers	Units	OrigDataRate	OrigDataStartFrame	OrigNumFrames
44.585987261147	44.585987261147	4	33	mm	44.585987261147	106	       141
Frame#	Time	R.Midfoot.Superior			Sacral			L.Shoulder			Chest			R.Shoulder			Neck			R.ASIS			L.ASIS			R.Thigh.Superior			R.Thigh.Lateral			R.Thigh.Inferior			R.Patella			L.Thigh.Superior			L.Thigh.Lateral			L.Thigh.Inferior			L.Patella			L.Shank.Superior			L.Shank.Lateral			L.Shank.Inferior			R.Shank.Superior			R.Shank.Lateral			R.Shank.Inferior			R.Heel			R.Midfoot.Lateral			R.Toe			L.Heel			L.Midfoot.Lateral			L.Midfoot.Superior			L.Toe			L.Elbow			L.Wrist			R.Elbow			R.Wrist			
		X1	Y1	Z1	X2	Y2	Z2	X3	Y3	Z3	X4	Y4	Z4	X5	Y5	Z5	X6	Y6	Z6	X7	Y7	Z7	X8	Y8	Z8	X9	Y9	Z9	X10	Y10	Z10	X11	Y11	Z11	X12	Y12	Z12	X13	Y13	Z13	X14	Y14	Z14	X15	Y15	Z15	X16	Y16	Z16	X17	Y17	Z17	X18	Y18	Z18	X19	Y19	Z19	X20	Y20	Z20	X21	Y21	Z21	X22	Y22	Z22	X23	Y23	Z23	X24	Y24	Z24	X25	Y25	Z25	X26	Y26	Z26	X27	Y27	Z27	X28	Y28	Z28	X29	Y29	Z29	X30	Y30	Z30	X31	Y31	Z31	X32	Y32	Z32	X33	Y33	Z33	

106	31.025000000000	784.178674300245	147.881265167322	553.383914360189	714.513086956705	974.760907717145	377.635511811720	889.872124540246	1416.142152417845	203.455226669267	992.587955959479	1340.248276844787	361.839525869824	909.961643583343	1407.354083800112	537.982838179436	874.431076770771	1470.320979446987	366.097732237842	947.128516351909	918.832002286583	493.118079595774	931.376525443024	939.462743172487	219.847981308860	1024.805797290297	736.761773026146	463.039209734088	978.945931725145	620.597709558586	539.224898545487	1061.823457804943	573.523435255149	454.892068717900	1071.682055134768	459.437007119934	483.091617657931	1002.753213643533	736.528811436622	270.913632995999	934.560795343601	602.044358481646	222.085586419683	1023.223622446222	540.901461720260	299.543949308626	1029.826721285483	463.885729315950	312.566472077465	983.898531202455	389.035063298397	309.374967796129	874.607543482583	292.065550790673	259.856162871404	893.406530318659	178.457655429654	338.104273751046	986.117386515720	394.038814731113	498.947953968026	858.147877981432	375.031322670172	558.495452558825	833.963851687552	262.575566688442	522.378246298440	629.108031100716	223.934392718347	487.472051980272	673.179344806133	168.924409111812	573.935272534733	828.203176478984	33.656379047017	600.849373656929	738.012987399303	40.438515837812	380.663053377115	810.996275341619	36.227688976766	299.739857663036	896.516817179009	94.805497358376	326.624763115475	1023.049441025971	39.706103859150	294.175313906201	964.737608635519	1088.531121419379	56.446755961870	1138.216686662936	891.941998276372	68.921346691537	891.393021496392	1053.015349214544	644.467847710121	986.861014439759	809.335590513654	636.943329706641	
107	31.047428571429	800.603765799482	147.677820263890	552.439398290858	714.735187075505	975.778475035513	374.339115738898	895.818236408578	1417.062382894006	203.851937980030	994.487385085547	1340.414493331219	364.374064514712	907.735350984497	1407.157293983488	538.725836922147	876.949532070620	1470.811952534985	366.316487515107	945.884444129611	919.895956756118	493.264923423350	933.871311799668	939.710938450086	219.776602375155	1026.662368126259	740.632719477510	462.016948937291	983.583477365142	623.769294050781	538.324351659526	1067.043243475698	578.223221204122	453.672945900930	1079.675614568109	464.393990359373	482.133637539313	1003.078304502266	735.465381662990	270.934369773213	933.727291554789	601.754436685581	221.897571858451	1021.268830615778	539.929550033741	300.054826862660	1027.191630905026	463.042360431255	313.270685409451	980.862388485766	388.538703045681	309.752393280065	871.477592079694	292.003638831709	259.738515083572	889.430207795981	178.361497029300	338.060561547590	995.427992829811	397.347896685278	498.328062797941	867.690613721596	375.474299310501	557.211213371494	846.749183111287	262.297087697831	521.531426612272	643.102055576608	216.688258880356	486.335009910833	689.236478864059	164.364341193815	573.187951964932	848.989635439160	35.103085655296	600.673397069374	733.460771217847	40.640800768699	380.477178812084	806.536200539141	36.276381718095	299.631229580001	892.087202253107	94.800786169647	326.484149120853	1018.567211543071	39.568151026114	294.113610570261	978.937398723598	1094.035211142723	53.523490974267	1164.879476408171	909.117036688594	67.907074384265	867.128818828465	1057.279531447522	649.171529890616	939.996303907604	804.835597595367	649.562381511934	
108	31.069857142857	819.347587309493	146.067709179088	552.637444142772	714.999798803965	977.580853806502	371.440428784560	901.895456788357	1418.412947609189	204.460807633803	996.466729018523	1341.179079079261	367.064985367655	905.747928134384	1407.957121908851	539.411706440438	879.648513433271	1471.916365744381	366.585554749197	944.478158476123	921.560904071575	493.900594103100	936.359197640367	940.475988285868	220.252074233386	1027.509389439869	744.629498319745	461.760651233834	986.658004328389	627.295320466029	538.221131383683	1070.475972032539	582.959875259028	453.371689803156	1085.801464926327	469.825626412639	482.127347871319	1002.898982581006	734.690412793731	271.347917581298	932.085921084722	601.956822206969	221.897152910596	1018.337183722826	539.228615521736	300.612849024744	1023.450311447837	462.598675623398	313.963630501992	976.923252437650	388.465250239232	310.105961112694	867.712587553101	292.115310543148	259.579656974492	885.137883097646	178.467622327871	337.974498103772	1003.643252621482	400.795504860890	498.722659375128	876.886499240757	374.619258717219	557.335293863768	860.346698822239	260.747817715260	521.899538767428	658.748170212247	205.558043719893	487.084838654581	707.882011583806	156.660142223558	574.030946122142	873.788332505647	36.684881844642	601.153751521718	728.883136690331	40.821259982239	380.271666512893	802.056173392174	36.311518681002	299.500796807490	887.621056196565	94.811280365357	326.304738934677	1014.067859868044	39.470697276479	294.059426048424	992.459994835316	1099.950682180745	51.088565241766	1190.087292151769	927.693335092545	67.288407256479	843.186359766095	1063.918513001076	653.214638767913	894.678981025341	805.842686363068	660.427455534457	
109	31.092285714286	840.265226441548	143.231724084542	554.051954237417	715.301128262894	980.048313822309	368.945678254639	908.046448494488	1420.098207499239	205.272068218117	998.499629513528	1342.459530634322	369.894797006529	904.022333648660	1409.657650676592	540.056842962771	882.485430638115	1473.549273898617	366.904248268670	942.890480768964	923.741706675014	495.045922365646	938.821986733831	941.668407032064	221.286525198163	1027.369626947911	748.596609794893	462.370952636936	988.108670488135	631.009078690643	539.007423070889	1072.139688100369	587.542329245881	454.139851294120	1090.022226633593	475.566013644737	483.191488759631	1002.227256950582	734.174891901804	272.171963807000	929.709470242694	602.607499111932	222.084926959499	1014.510449145663	538.777492048102	301.226349324260	1018.701483775323	462.526349343267	314.647613319277	972.168175024079	388.777540504895	310.436928774460	863.363965343646	292.382934581858	259.397061671790	880.557160935617	178.748929060712	337.861576197203	1010.739524471743	404.292946469347	500.200520642645	885.816622478141	372.509808622008	558.949687725736	874.756196955029	258.096171535545	523.554757317957	676.293324419092	191.174231531416	489.706751820425	729.116932476836	146.314346937516	576.444991687120	902.025601784822	38.413010366602	602.336220999640	724.287963753668	40.971203176483	380.053036233870	797.556592232653	36.330962532581	299.355027371555	883.123291103229	94.834651048786	326.099606756382	1009.555374550228	39.404723287966	294.014521323996	1005.261946729417	1106.057163317423	49.230090484610	1213.694257587541	947.369742433085	67.120188917964	820.039447936232	1072.533315054805	656.329668953832	851.799560149211	811.395557630893	669.278145834349	
